<svg width="220" height="38" viewBox="0 0 220 38" fill="none" xmlns="http://www.w3.org/2000/svg">
<path d="M55.652 29.8532C57.3132 30.4623 60.2203 31.2375 63.0997 31.2375C69.3016 31.2375 71.5165 28.8288 71.5165 26.2816C71.5165 23.0146 68.1387 21.5195 64.9548 20.2736C61.9369 19.1107 59.0298 18.1417 59.0298 16.1206C59.0298 14.5978 60.6079 13.7949 63.4874 13.7949C65.2316 13.7949 66.2283 14.0164 69.5784 15.3454L70.2429 13.5734C68.554 12.9366 66.0345 12.5213 63.4597 12.5213C59.1959 12.5213 56.3165 14.2102 56.3165 17.0066C56.3165 20.0244 59.5005 21.3534 62.6014 22.5993C65.5915 23.7621 68.4156 24.8696 68.4156 27.0568C68.4156 28.8841 66.5883 29.9639 63.1274 29.9639C61.1894 29.9639 59.3344 29.2164 56.3165 28.0258L55.652 29.8532ZM75.3926 30.9329H78.6043V15.8991L83.3664 14.3763C83.8647 14.2102 84.9168 13.9887 85.6644 13.9887C87.4086 13.9887 88.2946 15.1792 88.2946 17.3942V30.9329H91.5063V17.0066C91.5063 14.2933 89.5405 12.5213 86.5503 12.5213C85.4152 12.5213 84.2247 12.6044 82.6465 13.2412L78.6043 14.8747V6.40257H75.3926V30.9329ZM103.688 12.5213C100.892 12.5213 97.7911 13.4904 96.739 13.9887L97.4035 15.816L99.923 14.6532C100.975 14.1548 102.332 13.7949 103.688 13.7949C106.346 13.7949 107.786 15.1239 107.786 17.5603V20.9381H101.39C97.5973 20.9381 95.0501 23.1253 95.0501 26.2262C95.0501 29.1333 97.4312 31.2375 101.058 31.2375C101.64 31.2375 102.526 31.0437 103.91 30.49L107.897 28.9118L108.755 31.0714L111.662 30.7668C111.551 30.4346 111.053 28.2197 111.053 26.8907V17.4772C111.053 14.2102 108.45 12.5213 103.688 12.5213ZM107.786 22.2117V27.8597L103.245 29.3271C102.747 29.4932 102.055 29.6594 101.64 29.6594C99.5077 29.6594 98.3449 28.4135 98.3449 26.3923C98.3449 23.7621 99.8123 22.2117 102.526 22.2117H107.786ZM119.276 6.40257H116.037V24.482C116.037 26.1708 116.369 30.4346 116.369 31.0714C116.369 31.0714 118.141 31.016 119.276 30.9329V6.40257ZM131.597 12.5213C128.8 12.5213 125.699 13.4904 124.647 13.9887L125.312 15.816L127.831 14.6532C128.883 14.1548 130.24 13.7949 131.597 13.7949C134.254 13.7949 135.694 15.1239 135.694 17.5603V20.9381H129.299C125.505 20.9381 122.958 23.1253 122.958 26.2262C122.958 29.1333 125.339 31.2375 128.966 31.2375C129.548 31.2375 130.434 31.0437 131.818 30.49L135.805 28.9118L136.663 31.0714L139.57 30.7668C139.46 30.4346 138.961 28.2197 138.961 26.8907V17.4772C138.961 14.2102 136.359 12.5213 131.597 12.5213ZM135.694 22.2117V27.8597L131.154 29.3271C130.655 29.4932 129.963 29.6594 129.548 29.6594C127.416 29.6594 126.253 28.4135 126.253 26.3923C126.253 23.7621 127.72 22.2117 130.434 22.2117H135.694ZM143.945 30.9329H147.184V15.8991L151.946 14.3763C152.445 14.2102 153.497 13.9887 154.217 13.9887C155.961 13.9887 156.874 15.1792 156.874 17.3942V30.9329H160.086V17.0066C160.086 14.2933 158.093 12.5213 155.13 12.5213C153.995 12.5213 152.805 12.6044 151.199 13.2412L147.184 14.8747V6.40257H143.945V30.9329ZM168.309 28.6903C168.309 28.3027 168.309 28.0258 167.34 28.0258H165.706C164.737 28.0258 164.737 28.3581 164.737 28.6903V30.9329C164.737 31.4036 164.821 31.5974 165.706 31.5974H167.34C168.309 31.5974 168.309 31.4036 168.309 30.9329V28.6903ZM176.061 15.8991L179.578 14.4594C180.131 14.2102 180.934 14.1548 181.737 14.1548C183.371 14.1548 184.45 15.5669 184.45 17.6987V30.9329H187.69V17.0066C187.69 16.6743 187.634 16.2313 187.551 15.9268L191.206 14.4594C191.898 14.1825 192.784 14.1548 193.365 14.1548C195.165 14.1548 196.079 15.373 196.079 17.6987V30.9329H199.318V17.0066C199.318 14.2933 197.518 12.5213 194.888 12.5213C194.307 12.5213 192.396 12.5213 191.012 13.1858L187.164 14.9854C186.361 13.518 185.004 12.5213 183.26 12.5213C182.678 12.5213 180.713 12.5213 179.384 13.1304L175.923 14.7916L175.231 12.6598L172.822 12.8259V30.9329H176.061V15.8991ZM206.489 19.969C206.877 15.9545 208.372 13.7949 211.666 13.7949C214.85 13.7949 216.761 15.8991 216.761 19.886L206.489 19.969ZM206.35 21.2426L220 21.4641V19.9967C220 15.5115 216.761 12.5213 211.916 12.5213C206.544 12.5213 203 16.2313 203 21.824C203 27.4721 206.627 31.2375 212.109 31.2375C215.21 31.2375 218.505 29.7978 219.529 29.2994L218.893 27.5552L215.598 29.0779C214.74 29.4656 213.328 29.9639 212.414 29.9639C208.482 29.9639 206.35 27.0568 206.35 21.7133V21.2426Z" fill="black"/>
<path d="M33.8631 37.8961C33.7597 37.8961 33.708 37.8961 33.6046 37.8444L22.4892 31.5888H19.8009C19.4907 31.5888 19.2839 31.382 19.2839 31.0718C19.2839 30.7616 19.4907 30.5548 19.8009 30.5548H22.6443C22.7477 30.5548 22.7994 30.5548 22.9028 30.6065L33.3461 36.5003V31.0718C33.3461 30.7616 33.5529 30.5548 33.8631 30.5548H37.7406C39.8602 30.5548 41.618 28.797 41.618 26.6774V8.63427C41.618 8.32408 41.8248 8.11728 42.135 8.11728C42.4452 8.11728 42.652 8.32408 42.652 8.63427V26.6774C42.652 29.3657 40.4289 31.5888 37.7406 31.5888H34.3801V37.3792C34.3801 37.586 34.2767 37.741 34.1216 37.8444C34.0699 37.8444 33.9665 37.8961 33.8631 37.8961Z" fill="url(#paint0_linear_3_12)"/>
<path d="M8.7889 34.2255C8.6855 34.2255 8.6338 34.2255 8.5304 34.1738C8.37531 34.0704 8.27191 33.9153 8.27191 33.7085V27.9182H4.91145C2.22308 27.9182 0 25.6951 0 23.0067V5.01531C0 2.32694 2.22308 0.103867 4.91145 0.103867H32.7257C35.4141 0.103867 37.6372 2.32694 37.6372 5.01531V23.0584C37.6372 25.7468 35.4141 27.9699 32.7257 27.9699H20.1628L9.0474 34.1738C8.9957 34.2255 8.8923 34.2255 8.7889 34.2255V34.2255ZM4.91145 1.13785C2.79177 1.13785 1.03399 2.89564 1.03399 5.01531V23.0584C1.03399 25.1781 2.79177 26.9359 4.91145 26.9359H8.7889C9.0991 26.9359 9.3059 27.1427 9.3059 27.4529V32.8813L19.7492 26.9876C19.8009 26.9359 19.9043 26.9359 20.0077 26.9359H32.7257C34.8454 26.9359 36.6032 25.1781 36.6032 23.0584V5.01531C36.6032 2.89564 34.8454 1.13785 32.7257 1.13785H4.91145V1.13785Z" fill="url(#paint1_linear_3_12)"/>
<path d="M9.6678 17.1647C10.7814 17.1647 11.6841 16.262 11.6841 15.1484C11.6841 14.0348 10.7814 13.1321 9.6678 13.1321C8.55424 13.1321 7.65152 14.0348 7.65152 15.1484C7.65152 16.262 8.55424 17.1647 9.6678 17.1647Z" fill="url(#paint2_linear_3_12)"/>
<path d="M18.8186 17.1647C19.9321 17.1647 20.8349 16.262 20.8349 15.1484C20.8349 14.0348 19.9321 13.1321 18.8186 13.1321C17.705 13.1321 16.8023 14.0348 16.8023 15.1484C16.8023 16.262 17.705 17.1647 18.8186 17.1647Z" fill="url(#paint3_linear_3_12)"/>
<path d="M28.1762 17.1647C29.2897 17.1647 30.1925 16.262 30.1925 15.1484C30.1925 14.0348 29.2897 13.1321 28.1762 13.1321C27.0626 13.1321 26.1599 14.0348 26.1599 15.1484C26.1599 16.262 27.0626 17.1647 28.1762 17.1647Z" fill="url(#paint4_linear_3_12)"/>
<defs>
<linearGradient id="paint0_linear_3_12" x1="10.8092" y1="16.6684" x2="31.988" y2="26.5442" gradientUnits="userSpaceOnUse">
<stop stop-color="#E90DDA"/>
<stop offset="1" stop-color="#15CFF1"/>
</linearGradient>
<linearGradient id="paint1_linear_3_12" x1="-3.28128" y1="1.25611" x2="30.8296" y2="17.1623" gradientUnits="userSpaceOnUse">
<stop stop-color="#E90DDA"/>
<stop offset="1" stop-color="#15CFF1"/>
</linearGradient>
<linearGradient id="paint2_linear_3_12" x1="-1.85262" y1="16.2974" x2="1.80211" y2="18.0016" gradientUnits="userSpaceOnUse">
<stop stop-color="#E90DDA"/>
<stop offset="1" stop-color="#15CFF1"/>
</linearGradient>
<linearGradient id="paint3_linear_3_12" x1="6.44081" y1="20.1647" x2="10.0955" y2="21.8689" gradientUnits="userSpaceOnUse">
<stop stop-color="#E90DDA"/>
<stop offset="1" stop-color="#15CFF1"/>
</linearGradient>
<linearGradient id="paint4_linear_3_12" x1="14.9217" y1="24.1194" x2="18.5764" y2="25.8236" gradientUnits="userSpaceOnUse">
<stop stop-color="#E90DDA"/>
<stop offset="1" stop-color="#15CFF1"/>
</linearGradient>
</defs>
</svg>
