<svg width="43" height="38" viewBox="0 0 43 38" fill="none" xmlns="http://www.w3.org/2000/svg">
<path d="M33.8631 37.8961C33.7597 37.8961 33.708 37.8961 33.6046 37.8444L22.4892 31.5888H19.8009C19.4907 31.5888 19.2839 31.382 19.2839 31.0718C19.2839 30.7616 19.4907 30.5548 19.8009 30.5548H22.6443C22.7477 30.5548 22.7994 30.5548 22.9028 30.6065L33.3461 36.5003V31.0718C33.3461 30.7616 33.5529 30.5548 33.8631 30.5548H37.7406C39.8602 30.5548 41.618 28.797 41.618 26.6774V8.63427C41.618 8.32408 41.8248 8.11728 42.135 8.11728C42.4452 8.11728 42.652 8.32408 42.652 8.63427V26.6774C42.652 29.3657 40.4289 31.5888 37.7406 31.5888H34.3801V37.3792C34.3801 37.586 34.2767 37.741 34.1216 37.8444C34.0699 37.8444 33.9665 37.8961 33.8631 37.8961Z" fill="url(#paint0_linear_1_6)"/>
<path d="M8.7889 34.2255C8.6855 34.2255 8.6338 34.2255 8.5304 34.1738C8.37531 34.0704 8.27191 33.9153 8.27191 33.7085V27.9182H4.91145C2.22308 27.9182 0 25.6951 0 23.0067V5.01531C0 2.32694 2.22308 0.103867 4.91145 0.103867H32.7257C35.4141 0.103867 37.6372 2.32694 37.6372 5.01531V23.0584C37.6372 25.7468 35.4141 27.9699 32.7257 27.9699H20.1628L9.0474 34.1738C8.9957 34.2255 8.8923 34.2255 8.7889 34.2255V34.2255ZM4.91145 1.13785C2.79177 1.13785 1.03399 2.89564 1.03399 5.01531V23.0584C1.03399 25.1781 2.79177 26.9359 4.91145 26.9359H8.7889C9.0991 26.9359 9.3059 27.1427 9.3059 27.4529V32.8813L19.7492 26.9876C19.8009 26.9359 19.9043 26.9359 20.0077 26.9359H32.7257C34.8454 26.9359 36.6032 25.1781 36.6032 23.0584V5.01531C36.6032 2.89564 34.8454 1.13785 32.7257 1.13785H4.91145V1.13785Z" fill="url(#paint1_linear_1_6)"/>
<path d="M9.6678 17.1647C10.7814 17.1647 11.6841 16.262 11.6841 15.1484C11.6841 14.0348 10.7814 13.1321 9.6678 13.1321C8.55424 13.1321 7.65152 14.0348 7.65152 15.1484C7.65152 16.262 8.55424 17.1647 9.6678 17.1647Z" fill="url(#paint2_linear_1_6)"/>
<path d="M18.8186 17.1647C19.9321 17.1647 20.8349 16.262 20.8349 15.1484C20.8349 14.0348 19.9321 13.1321 18.8186 13.1321C17.705 13.1321 16.8023 14.0348 16.8023 15.1484C16.8023 16.262 17.705 17.1647 18.8186 17.1647Z" fill="url(#paint3_linear_1_6)"/>
<path d="M28.1762 17.1647C29.2897 17.1647 30.1925 16.262 30.1925 15.1484C30.1925 14.0348 29.2897 13.1321 28.1762 13.1321C27.0626 13.1321 26.1599 14.0348 26.1599 15.1484C26.1599 16.262 27.0626 17.1647 28.1762 17.1647Z" fill="url(#paint4_linear_1_6)"/>
<defs>
<linearGradient id="paint0_linear_1_6" x1="10.8092" y1="16.6684" x2="31.988" y2="26.5442" gradientUnits="userSpaceOnUse">
<stop stop-color="#E90DDA"/>
<stop offset="1" stop-color="#15CFF1"/>
</linearGradient>
<linearGradient id="paint1_linear_1_6" x1="-3.28128" y1="1.25611" x2="30.8296" y2="17.1623" gradientUnits="userSpaceOnUse">
<stop stop-color="#E90DDA"/>
<stop offset="1" stop-color="#15CFF1"/>
</linearGradient>
<linearGradient id="paint2_linear_1_6" x1="-1.85262" y1="16.2974" x2="1.80211" y2="18.0016" gradientUnits="userSpaceOnUse">
<stop stop-color="#E90DDA"/>
<stop offset="1" stop-color="#15CFF1"/>
</linearGradient>
<linearGradient id="paint3_linear_1_6" x1="6.44081" y1="20.1647" x2="10.0955" y2="21.8689" gradientUnits="userSpaceOnUse">
<stop stop-color="#E90DDA"/>
<stop offset="1" stop-color="#15CFF1"/>
</linearGradient>
<linearGradient id="paint4_linear_1_6" x1="14.9217" y1="24.1194" x2="18.5764" y2="25.8236" gradientUnits="userSpaceOnUse">
<stop stop-color="#E90DDA"/>
<stop offset="1" stop-color="#15CFF1"/>
</linearGradient>
</defs>
</svg>
